<svg id="Capa_1" enable-background="new 0 0 512.026 512.026" height="512" viewBox="0 0 512.026 512.026" width="512" xmlns="http://www.w3.org/2000/svg"><g><path d="m91.76 433.013 82.739-4 8.849-57.727c.662-4.325-.596-8.723-3.445-12.043s-7.007-5.23-11.382-5.23h-153.521c-4.375 0-8.531 1.91-11.381 5.229s-4.108 7.717-3.446 12.042l8.842 57.729z" fill="#fff4f4"/><g><g><path d="m472.366 412.536c-4.87 0-9.804-.919-14.554-2.855-19.294-7.866-28.915-29.396-21.901-49.017l43.845-122.659c4.146-11.655 2.524-23.222-4.695-33.428-6.895-9.746-18.389-15.564-30.746-15.564h-28.542c-8.284 0-15-6.716-15-15s6.716-15 15-15h28.542c22.079 0 42.729 10.556 55.236 28.238 12.916 18.256 15.921 39.859 8.463 60.829l-43.853 122.682c-1.594 4.458.592 9.351 4.977 11.138 4.273 1.742 9.217-.139 11.251-4.284l3.145-6.411c3.647-7.438 12.633-10.51 20.072-6.862 7.438 3.648 10.51 12.635 6.861 20.073l-3.144 6.411c-6.689 13.638-20.535 21.709-34.957 21.709z" fill="#ff9f40"/></g></g><path d="m251.127 319.098h14.639v-159.382c-23.712-11.991-50.913-18.82-79.814-18.82-44.813 0-86.851 16.174-118.369 45.544-4.972 4.633-6.208 12.029-3.013 18.027 3.194 5.998 10.021 9.1 16.642 7.556 11.088-2.583 22.565-3.893 34.114-3.893 70.591 0 128.837 48.734 135.801 110.968z" fill="#ffbe40"/><g><path d="m61.731 326.017c-1.866 0-3.763-.35-5.6-1.09-7.684-3.095-11.404-11.833-8.31-19.518 2.964-7.357 1.104-14.722-1.05-23.25-2.67-10.573-5.993-23.732 2.798-35.921 4.846-6.719 14.221-8.237 20.94-3.392 6.707 4.837 8.232 14.188 3.417 20.904-.436 1.688.986 7.321 1.932 11.063 2.704 10.708 6.408 25.374-.209 41.802-2.354 5.85-7.978 9.402-13.918 9.402z" fill="#fff4f4"/></g><g><path d="m124.555 336.017c-1.361 0-2.744-.187-4.118-.578-7.968-2.271-12.586-10.569-10.315-18.537 2.618-9.186 1.734-12.094.397-16.497-1.77-5.826-4.193-13.806-.424-27.367 2.218-7.982 10.494-12.652 18.469-10.435 7.981 2.218 12.654 10.487 10.436 18.469-1.434 5.156-.981 6.643.225 10.615 2.522 8.305 4.401 17.111-.251 33.436-1.88 6.594-7.889 10.894-14.419 10.894z" fill="#fff4f4"/></g><path d="m449.476 354.269c-18.283-18.237-27.588-39.646-28.445-65.454-1.12-33.727.205-60.598 3.731-92.611.096-.876-86.271-2.638-86.271-2.638s-86.502 1.763-86.406 2.638c3.531 32.126 4.865 58.965 3.762 92.479-.849 25.808-10.147 47.222-28.43 65.467-16.508 16.476-23.301 40.814-17.769 63.587l.457 2.211 130.437 5.702 126.142-5.702.151-.736c6.388-23.028-.234-47.86-17.359-64.943z" fill="#ffde46"/><path d="m449.476 354.269c-18.283-18.237-27.588-39.646-28.445-65.454-1.12-33.727.205-60.598 3.731-92.611.096-.876-86.271-2.638-86.271-2.638s-.039.001-.096.002v231.989l2.148.094 126.142-5.702.151-.736c6.387-23.029-.235-47.861-17.36-64.944z" fill="#ffbe40"/><path clip-rule="evenodd" d="m210.104 419.949 11.836 57.318c4.225 20.458 22.239 34.746 43.809 34.746h145.323c21.581 0 39.596-14.288 43.807-34.745l11.804-57.319z" fill="#fff36c" fill-rule="evenodd"/><path d="m250.324 142.154c-2.849 3.267-4.146 7.606-3.556 11.899 2.119 15.431 3.895 29.218 5.316 42.151h172.676c1.425-12.942 3.208-26.72 5.338-42.139.594-4.295-.701-8.637-3.55-11.907-2.849-3.269-6.973-5.146-11.309-5.146h-153.61c-4.334.001-8.456 1.876-11.305 5.142z" fill="#fff36c"/><path d="m9.015 429.014 6.864 44.811c3.388 22.127 22.095 38.188 44.48 38.188h62.789c22.383 0 41.089-16.058 44.48-38.182l6.87-44.817z" fill="#8c4a37"/><path clip-rule="evenodd" d="m338.393 419.949v92.064h72.679c21.581 0 39.596-14.288 43.807-34.745l11.804-57.319z" fill="#ffde46" fill-rule="evenodd"/><path d="m426.549 142.159c-2.849-3.269-6.973-5.146-11.309-5.146h-76.847v59.191h86.367c1.425-12.942 3.208-26.72 5.338-42.139.594-4.295-.701-8.637-3.549-11.906z" fill="#ffde46"/><g><g><path d="m338.416 64.514c-8.284 0-15-6.716-15-15v-34.501c0-8.284 6.716-15 15-15s15 6.716 15 15v34.501c0 8.284-6.716 15-15 15z" fill="#fff36c"/></g></g><path d="m338.416.013c-.008 0-.015.001-.023.001v64.499c.008 0 .015.001.023.001 8.284 0 15-6.716 15-15v-34.501c0-8.284-6.716-15-15-15z" fill="#ffde46"/><path d="m430.179 151.694c-.001-.055.005-.108.003-.163-1.045-32.528-22.937-60.912-53.358-70.792l-9.304-34.619c-1.762-6.552-7.701-11.107-14.486-11.107h-29.242c-6.785 0-12.726 4.555-14.486 11.107l-9.304 34.621c-30.418 9.883-52.307 38.266-53.351 70.791-.002.054.004.108.003.162z" fill="#ffde46"/><path d="m376.823 80.739-9.303-34.619c-1.762-6.552-7.701-11.107-14.486-11.107h-14.64v116.681h91.785c-.001-.055.005-.108.003-.163-1.045-32.528-22.937-60.911-53.359-70.792z" fill="#ffbe40"/></g></svg>